<svg width="22" height="22" viewBox="0 0 22 22" fill="none" xmlns="http://www.w3.org/2000/svg">
<path d="M15.9627 20.8622C14.0663 21.7157 12.4224 22 10.1781 22C4.93111 22 0.315918 18.2383 0.315918 12.0433C0.315918 5.59487 4.99401 0 12.1382 0C17.7014 0 21.6841 3.82491 21.6841 9.13516C21.6841 13.75 19.0922 16.6581 15.6784 16.6581C14.1928 16.6581 13.1182 15.8995 12.9601 14.224H12.8968C11.9171 15.8362 10.4947 16.6581 8.81926 16.6581C6.76467 16.6581 5.27898 15.1408 5.27898 12.5486C5.27898 8.69241 8.12386 5.18375 12.6754 5.18375C14.0663 5.18375 15.6465 5.53162 16.4371 5.97403L15.489 11.8219C15.1731 13.6864 15.3942 14.5403 16.2793 14.5716C17.6385 14.6032 19.3452 12.8645 19.3452 9.22969C19.3452 5.1205 16.6901 1.92775 11.7903 1.92775C6.95442 1.92775 2.71839 5.72103 2.71839 11.7583C2.71839 17.0369 6.10054 20.0399 10.8106 20.0399C12.4228 20.0399 14.1299 19.6924 15.3938 19.0283L15.9627 20.8622ZM13.1495 7.80759C12.8965 7.74434 12.5802 7.68109 12.1694 7.68109C10.0836 7.68109 8.43942 9.73569 8.43942 12.1694C8.43942 13.3705 8.97704 14.1292 10.02 14.1292C11.1894 14.1292 12.4225 12.6435 12.7067 10.8103L13.1495 7.80759Z" fill="#B4B4B4"/>
</svg>
