<svg width="22" height="22" viewBox="0 0 22 22" fill="none" xmlns="http://www.w3.org/2000/svg">
<g clip-path="url(#clip0)">
<path d="M17.1875 22H4.8125C3.67583 22 2.75 21.0751 2.75 19.9375V10.3125C2.75 9.17492 3.67583 8.25 4.8125 8.25H17.1875C18.3242 8.25 19.25 9.17492 19.25 10.3125V19.9375C19.25 21.0751 18.3242 22 17.1875 22ZM4.8125 9.625C4.43392 9.625 4.125 9.933 4.125 10.3125V19.9375C4.125 20.317 4.43392 20.625 4.8125 20.625H17.1875C17.5661 20.625 17.875 20.317 17.875 19.9375V10.3125C17.875 9.933 17.5661 9.625 17.1875 9.625H4.8125Z" fill="#B4B4B4"/>
<path d="M15.8125 9.625C15.433 9.625 15.125 9.317 15.125 8.9375V5.5C15.125 3.22575 13.2743 1.375 11 1.375C8.72575 1.375 6.875 3.22575 6.875 5.5V8.9375C6.875 9.317 6.567 9.625 6.1875 9.625C5.808 9.625 5.5 9.317 5.5 8.9375V5.5C5.5 2.46675 7.96675 0 11 0C14.0332 0 16.5 2.46675 16.5 5.5V8.9375C16.5 9.317 16.192 9.625 15.8125 9.625Z" fill="#B4B4B4"/>
<path d="M11 15.5833C9.98887 15.5833 9.16663 14.7611 9.16663 13.75C9.16663 12.7389 9.98887 11.9167 11 11.9167C12.011 11.9167 12.8333 12.7389 12.8333 13.75C12.8333 14.7611 12.011 15.5833 11 15.5833ZM11 13.2917C10.7479 13.2917 10.5416 13.497 10.5416 13.75C10.5416 14.003 10.7479 14.2083 11 14.2083C11.252 14.2083 11.4583 14.003 11.4583 13.75C11.4583 13.497 11.252 13.2917 11 13.2917Z" fill="#B4B4B4"/>
<path d="M11 18.3333C10.6205 18.3333 10.3125 18.0253 10.3125 17.6458V15.125C10.3125 14.7455 10.6205 14.4375 11 14.4375C11.3795 14.4375 11.6875 14.7455 11.6875 15.125V17.6458C11.6875 18.0253 11.3795 18.3333 11 18.3333Z" fill="#B4B4B4"/>
</g>
<defs>
<clipPath id="clip0">
<rect width="22" height="22" fill="white"/>
</clipPath>
</defs>
</svg>
