<svg width="33" height="33" viewBox="0 0 33 33" fill="none" xmlns="http://www.w3.org/2000/svg">
    <path d="M25.3843 27.9233C25.3843 28.6243 25.6329 29.2224 26.1283 29.7178C26.6237 30.2136 27.2223 30.4618 27.9236 30.4618C28.6238 30.4618 29.2224 30.2136 29.7178 29.7178C30.2136 29.2224 30.4618 28.6243 30.4618 27.9233C30.4618 27.2223 30.2139 26.6242 29.7178 26.1283C29.2224 25.6329 28.6238 25.3848 27.9236 25.3848C27.2223 25.3848 26.6237 25.6329 26.1283 26.1283C25.6329 26.6242 25.3843 27.2223 25.3843 27.9233Z" fill="#6B6B6B"/>
    <path d="M32.6231 5.45341C32.3718 5.20217 32.0745 5.07651 31.7307 5.07651H7.9129C7.8995 4.98406 7.86977 4.81562 7.82351 4.57104C7.77725 4.32633 7.74099 4.13142 7.71452 3.98583C7.68792 3.84087 7.6386 3.66555 7.56574 3.46064C7.49301 3.25559 7.40709 3.09346 7.30796 2.97476C7.20898 2.85542 7.0768 2.75324 6.91148 2.66704C6.7463 2.5814 6.55778 2.53833 6.34634 2.53833H1.26948C0.925504 2.53833 0.62807 2.66419 0.376898 2.91509C0.125656 3.16626 0 3.4639 0 3.8076C0 4.15129 0.125656 4.44879 0.376898 4.69996C0.628278 4.95121 0.925781 5.07672 1.26948 5.07672H5.3147L8.82472 21.3984C8.79847 21.4512 8.66295 21.7022 8.41823 22.152C8.17366 22.6017 7.97868 22.9949 7.83337 23.332C7.68799 23.6695 7.61526 23.9305 7.61526 24.1154C7.61526 24.4591 7.74092 24.7567 7.99202 25.0083C8.24354 25.2588 8.5409 25.3848 8.88467 25.3848H10.1539H27.9231H29.1916C29.5353 25.3848 29.8328 25.2588 30.0839 25.0083C30.3354 24.7568 30.4609 24.4592 30.4609 24.1154C30.4609 23.7717 30.3354 23.4741 30.0839 23.2231C29.8329 22.972 29.5353 22.846 29.1916 22.846H10.9468C11.2643 22.2113 11.4229 21.7887 11.4229 21.5771C11.4229 21.4445 11.4064 21.299 11.3733 21.1407C11.3401 20.9824 11.3005 20.8069 11.2543 20.6149C11.2079 20.4238 11.1784 20.2816 11.1652 20.1889L31.87 17.7695C32.2001 17.7296 32.4714 17.5879 32.6829 17.343C32.8945 17.0987 33 16.8178 33 16.5002V6.3462C32.9999 6.0025 32.8745 5.705 32.6231 5.45341Z" fill="#6B6B6B"/>
    <path d="M7.61517 27.9233C7.61517 28.6243 7.86294 29.2224 8.35883 29.7178C8.85485 30.2136 9.45284 30.4618 10.1538 30.4618C10.8543 30.4618 11.4526 30.2136 11.9483 29.7178C12.4442 29.2224 12.6922 28.6243 12.6922 27.9233C12.6922 27.2223 12.4444 26.6242 11.9483 26.1283C11.4526 25.6329 10.8543 25.3848 10.1538 25.3848C9.45291 25.3848 8.85457 25.6329 8.35883 26.1283C7.86322 26.6242 7.61517 27.2223 7.61517 27.9233Z" fill="#6B6B6B"/>
    <path d="M22.7242 11.8727H21.1273V10.2758C21.1273 10.172 21.0432 10.0879 20.9394 10.0879H19.0606C18.9569 10.0879 18.8727 10.172 18.8727 10.2758V11.8727H17.2758C17.172 11.8727 17.0879 11.9568 17.0879 12.0606V13.9394C17.0879 14.0431 17.172 14.1273 17.2758 14.1273H18.8727V15.7242C18.8727 15.828 18.9568 15.9121 19.0606 15.9121H20.9394C21.0431 15.9121 21.1273 15.828 21.1273 15.7242V14.1273H22.7242C22.828 14.1273 22.9121 14.0432 22.9121 13.9394V12.0606C22.9121 11.9568 22.828 11.8727 22.7242 11.8727Z" fill="white"/>
    <path d="M19.1546 15.1606V14.1273C19.1546 13.9719 19.0281 13.8454 18.8727 13.8454H17.8394C17.5804 13.8454 17.3697 13.6347 17.3697 13.3757V11.8727H17.2758C17.172 11.8727 17.0879 11.9568 17.0879 12.0606V13.9394C17.0879 14.0431 17.172 14.1272 17.2758 14.1272H18.8727V15.7242C18.8727 15.828 18.9568 15.9121 19.0606 15.9121H20.9394C21.0431 15.9121 21.1273 15.828 21.1273 15.7242V15.6303H19.6242C19.3653 15.6303 19.1546 15.4196 19.1546 15.1606Z" fill="#E1D6D6"/>
</svg> 