<svg width="21" height="21" viewBox="0 0 21 21" fill="none" xmlns="http://www.w3.org/2000/svg">
    <g clip-path="url(#clip0)">
    <path d="M21 10.5011C21 4.7016 16.2989 0.000920972 10.5001 0.000920972C4.70106 0.000920972 0 4.70156 0 10.5011C0 16.2997 4.70106 21.0007 10.5001 21.0007C16.2989 21.0007 21 16.2997 21 10.5011Z" fill="#43C17D"/>
    <path d="M16.2814 6.9823C16.0342 6.34493 15.5305 6.44554 14.9848 6.55368C14.6588 6.62161 13.2091 7.04596 10.9153 9.46468C9.96338 10.4685 9.33544 11.2688 8.92201 11.8791C8.66945 11.569 8.38012 11.2373 8.07626 10.9333C7.14181 9.99912 6.09972 9.35755 6.05591 9.33059C5.61861 9.06327 5.04773 9.20082 4.77964 9.63779C4.51189 10.0748 4.64902 10.6466 5.08565 10.9149C5.09458 10.9205 5.98946 11.4738 6.76253 12.2471C7.55092 13.0356 8.26525 14.1019 8.27227 14.1122C8.44619 14.3737 8.73819 14.5263 9.04539 14.5263C9.09812 14.5263 9.15137 14.5218 9.20436 14.5126C9.56692 14.4497 9.85816 14.1786 9.94695 13.8214C9.9492 13.8128 10.3176 12.7947 12.2634 10.7432C13.8307 9.09027 14.8759 8.56493 15.238 8.4192C15.2415 8.41861 15.244 8.41836 15.2487 8.41738C15.2469 8.41781 15.2604 8.41158 15.2822 8.40176C15.3444 8.37844 15.3777 8.36951 15.3796 8.36905C15.3617 8.37349 15.3525 8.37459 15.3525 8.37459L15.3519 8.37138C15.5195 8.29828 15.8332 8.1633 15.84 8.16043C16.3124 7.96636 16.466 7.45829 16.2814 6.9823Z" fill="white"/>
    </g>
    <defs>
    <clipPath id="clip0">
    <rect width="21" height="21" fill="white"/>
    </clipPath>
    </defs>
</svg>
