<svg width="67" height="67" viewBox="0 0 67 67" fill="none" xmlns="http://www.w3.org/2000/svg">
    <path d="M43.55 55.8333H59.1833V67H43.55V55.8333Z" fill="#8C6239"/>
    <path d="M59.1833 55.8333L65.8833 0H36.85L43.55 55.8333H59.1833Z" fill="#A67C52"/>
    <path d="M36.85 0L43.55 55.8333H54.7167L61.4167 0H36.85Z" fill="#C69C6D"/>
    <path d="M1.11667 0H32.3833V67H1.11667V0Z" fill="#A67C52"/>
    <path d="M1.11667 0H26.8V67H1.11667V0Z" fill="#C69C6D"/>
    <path d="M13.4 4.46667H20.1V8.93334H13.4V4.46667Z" fill="#C7B299"/>
    <path d="M1.11667 12.2833H32.3833V14.5167H1.11667V12.2833Z" fill="#736357"/>
    <path d="M24.5667 52.4833C24.5667 56.8006 21.0673 60.3 16.75 60.3C12.4327 60.3 8.93333 56.8006 8.93333 52.4833C8.93333 48.1661 12.4327 44.6667 16.75 44.6667C21.0673 44.6667 24.5667 48.1661 24.5667 52.4833Z" fill="#C7B299"/>
    <path d="M21.2167 52.4833C21.2167 48.268 18.467 44.851 15.075 44.851C11.683 44.851 8.93333 48.268 8.93333 52.4833C8.93333 56.6986 11.683 60.1157 15.075 60.1157C18.467 60.1157 21.2167 56.6986 21.2167 52.4833Z" fill="#F0F3BD"/>
    <path d="M22.3333 39.0833C22.3333 42.1667 19.8334 44.6667 16.75 44.6667C13.6666 44.6667 11.1667 42.1667 11.1667 39.0833C11.1667 36 13.6666 33.5 16.75 33.5C19.8334 33.5 22.3333 36 22.3333 39.0833Z" fill="#C7B299"/>
    <path d="M18.9833 39.0833C18.9833 36.1565 17.2336 33.7835 15.075 33.7835C12.9164 33.7835 11.1667 36.1565 11.1667 39.0833C11.1667 42.0102 12.9164 44.3831 15.075 44.3831C17.2336 44.3831 18.9833 42.0102 18.9833 39.0833Z" fill="#F0F3BD"/>
    <path d="M59.1833 16.75C59.1833 21.0673 55.6839 24.5667 51.3667 24.5667C47.0494 24.5667 43.55 21.0673 43.55 16.75C43.55 12.4327 47.0494 8.93332 51.3667 8.93332C55.6839 8.93332 59.1833 12.4327 59.1833 16.75Z" fill="#C7B299"/>
    <path d="M55.8333 16.75C55.8333 12.5347 53.0837 9.11761 49.6917 9.11761C46.2997 9.11761 43.55 12.5347 43.55 16.75C43.55 20.9653 46.2997 24.3824 49.6917 24.3824C53.0837 24.3824 55.8333 20.9653 55.8333 16.75Z" fill="#F0F3BD"/>
    <path d="M56.95 30.15C56.95 33.2334 54.45 35.7333 51.3667 35.7333C48.2833 35.7333 45.7833 33.2334 45.7833 30.15C45.7833 27.0666 48.2833 24.5667 51.3667 24.5667C54.45 24.5667 56.95 27.0666 56.95 30.15Z" fill="#C7B299"/>
    <path d="M53.6 30.15C53.6 27.2231 51.8503 24.8502 49.6917 24.8502C47.533 24.8502 45.7833 27.2231 45.7833 30.15C45.7833 33.0769 47.533 35.4498 49.6917 35.4498C51.8503 35.4498 53.6 33.0769 53.6 30.15Z" fill="#F0F3BD"/>
    <path d="M4.46667 17.8667H26.8V22.3333H4.46667V17.8667Z" fill="#C7B299"/>
    <path d="M65.2132 5.58334L65.4815 3.35001H37.2518L37.5201 5.58334H65.2132Z" fill="#736357"/>
    <path d="M43.55 61.4167H59.1833V63.65H43.55V61.4167Z" fill="#A67C52"/>
    <path d="M50.25 59.1833H52.4833V62.5333H50.25V59.1833Z" fill="#A67C52"/>
    <path d="M48.0167 46.9H54.7167V51.3667H48.0167V46.9Z" fill="#C7B299"/>
    <path d="M55.8333 16.75H53.6C53.6 15.5183 52.5984 14.5167 51.3667 14.5167V12.2833C53.8301 12.2833 55.8333 14.2866 55.8333 16.75Z" fill="#998675"/>
    <path d="M16.75 56.95C14.2866 56.95 12.2833 54.9468 12.2833 52.4833H14.5167C14.5167 53.7151 15.5183 54.7167 16.75 54.7167V56.95Z" fill="#998675"/>
    <path d="M1.11667 3.35001H32.3833V5.58334H1.11667V3.35001Z" fill="#736357"/>
</svg>
