<svg width="67" height="67" viewBox="0 0 67 67" fill="none" xmlns="http://www.w3.org/2000/svg">
    <g clip-path="url(#clip0)">
    <path d="M64.9128 29.34V56.3533C64.4534 56.632 53.4246 67 36.0138 67C35.1658 67 34.3296 66.9778 33.5065 66.9333C14.3304 65.9034 2.08719 52.8502 2.08719 33.2932C2.08719 13.7599 14.3526 0.796934 33.5065 0.035332C34.1059 0.0117773 34.713 0 35.3255 0C61.937 0 63.1553 18.3426 64.5006 21.5198L48.1222 24.4733L47.6223 22.7905C46.0599 17.5482 41.5779 14.5398 35.3255 14.5398C34.7026 14.5398 34.0967 14.5633 33.5065 14.6091C24.2063 15.3315 19.1159 21.724 19.1159 32.796C19.1159 44.7696 24.2077 51.6633 33.5065 52.3948C34.0548 52.438 34.6188 52.4602 35.1972 52.4602C40.1594 52.4602 45.0823 50.2932 48.1418 48.2308V43.5003H33.5772V29.34H64.9128Z" fill="#3E3E3E"/>
    <path d="M64.9128 29.34V56.3533C64.4535 56.632 53.4246 67 36.0138 67C35.1658 67 34.3296 66.9777 33.5065 66.9332V52.3948C34.0548 52.4379 34.6188 52.4602 35.1972 52.4602C40.1594 52.4602 45.0824 50.2932 48.1418 48.2308V43.5003H33.5772V29.34H64.9128Z" fill="#585858"/>
    <path d="M64.5006 21.5198L48.1222 24.4733L47.6223 22.7905C46.0599 17.5482 41.5779 14.5398 35.3255 14.5398C34.7026 14.5398 34.0967 14.5633 33.5065 14.6091V0.035332C34.1059 0.0117773 34.7131 0 35.3255 0C61.937 0 63.1553 18.3426 64.5006 21.5198Z" fill="#585858"/>
    </g>
    <defs>
    <clipPath id="clip0">
    <rect width="67" height="67" fill="white"/>
    </clipPath>
    </defs>
</svg>
