<svg width="67" height="67" viewBox="0 0 67 67" fill="none" xmlns="http://www.w3.org/2000/svg">
    <g clip-path="url(#clip0)">
    <path d="M29.285 0H17.1032V11.1158H29.285V0Z" fill="#FFE98F"/>
    <path d="M29.285 0H23.1942V11.1158H29.285V0Z" fill="#FFC170"/>
    <path d="M36.0146 63.65L35.8815 57.0109L34.3354 18.3596L32.3021 14.7197H14.0854L12.0523 18.3596L10.5063 57.0109L10.3732 63.65H36.0146Z" fill="#99EFF2"/>
    <path d="M36.0146 63.65L35.8815 57.0109L34.3354 18.3596L32.3021 14.7197H23.1938V63.65H36.0146Z" fill="#00D7DF"/>
    <path d="M10.3061 67H23.1938H36.0817L35.9903 62.4319H10.3976L10.3061 67Z" fill="#CCF7F9"/>
    <path d="M29.1833 9.13635H17.2045L12.1007 18.2727H34.2869L29.1833 9.13635Z" fill="#CCF7F9"/>
    <path d="M25.7325 31.2159H21.1643V47.9659H25.7325V31.2159Z" fill="white"/>
    <path d="M42.2279 8.83182V17.0545H49.0801V8.83182" fill="#EBFCFC"/>
    <path d="M42.2279 3.0455V10.6592H50.2983V15.2273H42.2279V22.8409H51.3643V3.0455H42.2279Z" fill="#00D7DF"/>
    <path d="M49.0801 0C53.285 0 56.6938 3.40876 56.6938 7.61366V63.1932C56.6938 65.2956 54.9893 67 52.887 67C50.7846 67 49.0801 65.2956 49.0801 63.1932V20.5568V0Z" fill="#FFE98F"/>
    <path d="M52.8871 1.02109V67C54.9895 67 56.6939 65.2955 56.6939 63.1932V7.61365C56.6938 4.79612 55.1621 2.33779 52.8871 1.02109Z" fill="#FFC170"/>
    </g>
    <defs>
    <clipPath id="clip0">
    <rect width="67" height="67" fill="white"/>
    </clipPath>
    </defs>
</svg>
