<svg width="67" height="67" viewBox="0 0 67 67" fill="none" xmlns="http://www.w3.org/2000/svg">
    <path d="M33.5 0C22.3991 0 13.4 8.99907 13.4 20.1V53.8693C13.4 54.9534 14.2789 55.8322 15.3629 55.8322H51.6371C52.7212 55.8322 53.6 54.9534 53.6 53.8693V20.1C53.6 8.99907 44.601 0 33.5 0V0Z" fill="#141E6E"/>
    <path d="M51.6372 55.8322C52.7212 55.8322 53.6001 54.9534 53.6001 53.8693V20.1C53.6001 8.99907 44.601 0 33.5001 0V55.8322H51.6372Z" fill="#000046"/>
    <path d="M58.0667 48.0111L53.6 41.7069C49.1541 35.3926 41.8093 31.2666 33.5 31.2666C19.9323 31.2666 8.93341 42.2655 8.93341 55.8333C8.93341 62.0007 13.9383 66.9999 20.1 66.9999H29.0334C29.0334 64.5348 31.0349 62.5333 33.5002 62.5333C35.9654 62.5333 37.9668 64.5348 37.9668 66.9999H42.4334C51.0675 66.9999 58.0668 60.0006 58.0668 51.3666L58.0667 48.0111Z" fill="#FF628C"/>
    <path d="M53.6001 41.7069C49.1541 35.3926 41.8094 31.2666 33.5001 31.2666V62.5333C35.9653 62.5333 37.9667 64.5348 37.9667 66.9999H42.4333C51.0674 66.9999 58.0667 60.0006 58.0667 51.3665V48.0109L53.6001 41.7069Z" fill="#FF2674"/>
    <path d="M20.1 55.8334C25.0338 55.8334 29.0334 59.8358 29.0334 64.7644V67H37.9668C37.9668 61.5261 41.0591 56.5201 45.9554 54.07L53.0935 50.5001L37.9668 41.1558L23.9774 49.1512C21.5797 50.5214 20.1 53.0718 20.1 55.8334Z" fill="#FAFAFF"/>
    <path d="M33.4978 43.7099V67H37.9668C37.9668 61.5261 41.0591 56.5201 45.9554 54.07L53.0935 50.5001L37.9668 41.1558L33.4978 43.7099Z" fill="#E4EDF1"/>
    <path d="M53.0934 50.5002C49.8541 52.1216 46.0062 51.9496 42.9244 50.0457C39.8427 48.1419 37.9667 44.7784 37.9667 41.1559L42.4706 38.7171C45.7448 36.945 49.71 37.0264 52.9086 38.9316C56.1071 40.8377 58.0666 44.2882 58.0666 48.0111C58.0667 48.0122 53.0934 50.5002 53.0934 50.5002Z" fill="#FFB4B9"/>
    <path d="M43.6466 15.4142C43.3252 14.7195 42.6292 14.2747 41.8637 14.2747H25.1365C24.3711 14.2747 23.6749 14.7195 23.3535 15.4142C22.6847 16.8599 22.3363 18.4351 22.3333 20.0647C22.3333 26.2318 27.3328 31.2313 33.4999 31.2313C39.6671 31.2313 44.6666 26.2318 44.6666 20.0647C44.6638 18.4351 44.3155 16.8599 43.6466 15.4142Z" fill="#FFDCDC"/>
    <path d="M33.5001 31.2313C39.6672 31.2313 44.6667 26.2318 44.6667 20.0647C44.6638 18.4351 44.3154 16.8599 43.6465 15.4142C43.3251 14.7195 42.6291 14.2747 41.8635 14.2747H33.5001V31.2313Z" fill="#FFB4B9"/>
</svg>