<svg width="67" height="67" viewBox="0 0 67 67" fill="none" xmlns="http://www.w3.org/2000/svg">
    <g clip-path="url(#clip0)">
    <path d="M37.3306 26.629V32.4032C35.5006 32.4994 34.0675 34.0141 34.0726 35.8468V61.871C34.0696 62.7407 34.4016 63.5784 35 64.2097C33.9944 64.976 32.7643 65.3897 31.5 65.3871H5.83064C2.61129 65.3853 0.00181466 62.7758 1.40322e-07 59.5565V26.629C-0.000806311 22.3407 3.4746 18.8637 7.7629 18.8629H7.76613H29.5645C33.8528 18.8647 37.3288 22.3407 37.3306 26.629Z" fill="#E63946"/>
    <path d="M37.3306 28.6532V32.4032C35.5006 32.4994 34.0675 34.0141 34.0726 35.8468V55.5968H0V28.6532H37.3306Z" fill="#FCF7ED"/>
    <path d="M27.554 39.6129H22.7032V34.7621H17.6798V39.6129H12.829V44.6363H17.6798V49.4871H22.7032V44.6363H27.554V39.6129Z" fill="#D12A46"/>
    <path d="M9.88708 12.5597H27.4395V18.792H9.88708V12.5597Z" fill="#D12A46"/>
    <path d="M7.93147 1.61292H29.396C30.7143 1.61292 31.7831 2.68167 31.7831 4.00001V10.1726C31.7831 11.4909 30.7143 12.5597 29.396 12.5597H7.93147C6.61312 12.5597 5.54437 11.4909 5.54437 10.1726V4.00001C5.54437 2.68167 6.61312 1.61292 7.93147 1.61292Z" fill="#F7EDDC"/>
    <path d="M24.1484 1.61292V5.75404C24.1484 6.53348 24.7802 7.16533 25.5597 7.16533C26.3391 7.16533 26.971 6.53348 26.971 5.75404V1.61292H24.1484ZM17.2524 5.75404C17.2524 6.53348 17.8843 7.16533 18.6637 7.16533C19.4432 7.16533 20.075 6.53348 20.075 5.75404V1.61292H17.2524V5.75404ZM10.3557 5.75404C10.3557 6.53348 10.9875 7.16533 11.7669 7.16533C12.5464 7.16533 13.1782 6.53348 13.1782 5.75404V1.61292H10.3557V5.75404Z" fill="#D12A46"/>
    <path d="M67 35.8468V61.871C67.0008 63.7764 65.4571 65.3218 63.5516 65.3226C63.5506 65.3226 63.5494 65.3226 63.5484 65.3226H37.5242C35.6238 65.3085 34.0867 63.7714 34.0726 61.871V35.8468C34.0675 34.0141 35.5006 32.4994 37.3306 32.4032C37.395 32.3966 37.4595 32.3937 37.5242 32.3952H63.5484C65.451 32.3915 66.9964 33.931 67 35.8339V35.8468Z" fill="#F7EDDC"/>
    <path d="M46.3709 38.9597L40.5242 44.8065C42.1607 46.399 44.7784 46.3633 46.3709 44.7268C47.9328 43.1218 47.9328 40.5647 46.3709 38.9597Z" fill="#E76F51"/>
    <path d="M40.5242 38.9597C38.9113 40.5748 38.9113 43.1913 40.5242 44.8065L46.371 38.9597C44.7558 37.3468 42.1393 37.3468 40.5242 38.9597Z" fill="#F4A261"/>
    <path d="M46.3742 58.754L40.5274 52.9073C38.9349 54.5437 38.9706 57.1615 40.607 58.754C42.2121 60.3159 44.7691 60.3159 46.3742 58.754Z" fill="#E76F51"/>
    <path d="M46.3742 52.9073C44.7591 51.2944 42.1425 51.2944 40.5274 52.9073L46.3742 58.7541C47.9871 57.1389 47.9871 54.5224 46.3742 52.9073Z" fill="#F4A261"/>
    <path d="M60.3846 38.9597L54.5403 44.8065C56.1768 46.399 58.7945 46.3633 60.3871 44.7268C61.949 43.1218 61.949 40.5647 60.3871 38.9597H60.3846Z" fill="#F4A261"/>
    <path d="M54.5403 38.9597C52.9274 40.5748 52.9274 43.1913 54.5403 44.8065L60.3871 38.9597C58.772 37.3468 56.1554 37.3468 54.5403 38.9597Z" fill="#E76F51"/>
    <path d="M60.3847 52.9032L54.5379 58.75C56.1744 60.3426 58.7921 60.3069 60.3847 58.6704C61.9466 57.0653 61.9466 54.5083 60.3847 52.9032Z" fill="#F4A261"/>
    <path d="M54.5403 52.9033C52.9274 54.5184 52.9274 57.1349 54.5403 58.75L60.3871 52.9033C58.772 51.2903 56.1554 51.2903 54.5403 52.9033Z" fill="#E76F51"/>
    <path d="M61.4153 19.0661C59.3226 16.9728 55.929 16.9724 53.8357 19.0651C53.8353 19.0655 53.8351 19.0657 53.8347 19.0661L61.4153 26.6468C63.5087 24.554 63.5091 21.1603 61.4163 19.0671C61.4159 19.0667 61.4157 19.0663 61.4153 19.0661Z" fill="#F4A261"/>
    <path d="M53.8363 26.6452C55.929 28.7385 59.3226 28.7389 61.4159 26.6462C61.4163 26.6458 61.4165 26.6456 61.4169 26.6452L53.8363 19.0645C51.7429 21.1573 51.7425 24.5508 53.8353 26.6442C53.8357 26.6446 53.8359 26.6448 53.8363 26.6452Z" fill="#E76F51"/>
    <path d="M56.3556 7.20565C56.3633 4.80585 54.4242 2.85424 52.0244 2.84658C50.8639 2.84295 49.7502 3.30343 48.9314 4.12581L45.5081 7.54759L51.6685 13.7097L55.0895 10.2887C55.9062 9.47138 56.3621 8.3611 56.3556 7.20565Z" fill="#2A9D8F"/>
    <path d="M42.0879 10.9677C40.3869 12.6694 40.3875 15.4276 42.0891 17.1286C43.7907 18.8296 46.549 18.829 48.25 17.1274L51.6685 13.7097L45.508 7.54758L42.0879 10.9677Z" fill="#E9C46A"/>
    </g>
    <defs>
    <clipPath id="clip0">
    <rect width="67" height="67" fill="white"/>
    </clipPath>
    </defs>
</svg>
